<?xml version="1.0" encoding="utf-8"?>
<!-- Generator: Adobe Illustrator 19.2.1, SVG Export Plug-In . SVG Version: 6.00 Build 0)  -->
<svg version="1.1" id="layer" xmlns="http://www.w3.org/2000/svg" xmlns:xlink="http://www.w3.org/1999/xlink" x="0px" y="0px"
	 viewBox="0 0 652 652" style="enable-background:new 0 0 652 652;" xml:space="preserve">
<style type="text/css">
	.st0{fill:#A9A7A3;}
	.st1{clip-path:url(#SVGID_2_);fill:url(#SVGID_3_);}
	.st2{fill:#DF3812;}
</style>
<path class="st0" d="M92.3,331.7h-3.9c-2.9,0-4.6-1.5-4.6-4.1v-53.8l-15.2,52.5c-0.6,1.7-1.9,3-3.8,3.9c-1.7,0.8-3.4,1.2-5.2,1.4
	l-0.2,0l-1,0c-1.7-0.2-3.4-0.7-5.1-1.4c-2-0.9-3.2-2.2-3.6-3.9l-15.2-52v53.4c0,2.6-1.7,4.1-4.6,4.1h-3.9c-2.9,0-4.6-1.5-4.6-4.1
	v-61.7l0.1-0.2c0.3-1,1-1.9,2.2-2.7c0.9-0.7,2-1.2,3.1-1.7c1.1-0.5,2.3-0.9,3.5-1.3c1.3-0.3,2.3-0.5,3.1-0.5c0.9,0,1.9,0.1,3,0.3
	c1.1,0.2,2.2,0.6,3.3,1c1.2,0.4,2.2,1,3.1,1.6c1,0.7,1.7,1.6,2.1,2.4l0.1,0.2l14.1,48.6l14-48.8c0.4-0.9,1.1-1.7,2.1-2.4
	c0.9-0.6,1.9-1.2,3-1.6c1.1-0.4,2.2-0.7,3.3-1c1.1-0.2,2.2-0.3,3-0.3c0.9,0,2,0.2,3.3,0.5c1.2,0.3,2.4,0.7,3.5,1.2
	c1.2,0.5,2.2,1.1,3.1,1.8c1.1,0.8,1.8,1.7,2.1,2.7l0.1,0.2v61.7C96.7,330.1,95.1,331.7,92.3,331.7 M21.6,265.7c0.3-1,1-1.9,2.2-2.7
	c0.9-0.7,2-1.2,3.1-1.7c1.1-0.5,2.3-0.9,3.5-1.3c1.3-0.3,2.3-0.5,3.1-0.5c0.9,0,1.9,0.1,3,0.3c1.1,0.2,2.2,0.6,3.3,1
	c1.2,0.4,2.2,1,3.1,1.6c1,0.7,1.7,1.6,2.1,2.4 M267.2,331.7c0.9,0,1.9-0.1,3.2-0.4c1.2-0.3,2.4-0.6,3.6-1.1c1.2-0.5,2.3-1.1,3.3-1.7
	c1.2-0.8,2-1.9,2.2-3.1l0-0.2v-61.5c0-2.6-1.7-4.1-4.6-4.1H271c-2.9,0-4.6,1.5-4.6,4.1v53.2l-22.3-52.3c-0.4-0.9-1.1-1.7-2-2.4
	c-0.8-0.6-1.8-1.1-2.9-1.5c-1.1-0.4-2.2-0.7-3.3-0.9c-1.1-0.2-2-0.3-2.8-0.3c-0.8,0-1.8,0.2-3.1,0.5c-1.1,0.3-2.3,0.7-3.4,1.3
	c-1.1,0.5-2.2,1.1-3.1,1.8c-1.1,0.8-1.8,1.7-2.1,2.7l-0.1,0.2v61.7c0,2.6,1.7,4.1,4.5,4.1h3.9c2.8,0,4.5-1.5,4.5-4.1v-53.4
	l22.4,52.5c0.8,1.6,2.3,2.8,4.7,3.8C263.5,331.2,265.4,331.7,267.2,331.7 M332.3,331.7c2.9,0,4.6-1.5,4.6-4.1v-56.8h16.7
	c2.8,0,4.5-1.5,4.5-4v-3.2c0-2.6-1.7-4.1-4.5-4.1H307c-2.7,0-4.4,1.5-4.4,4.1v3.2c0,2.5,1.6,4,4.4,4h17v56.8c0,2.6,1.7,4.1,4.5,4.1
	H332.3 M435.9,331.7c2.8,0,4.5-1.5,4.5-4.1v-64c0-2.6-1.7-4.1-4.5-4.1H432c-2.9,0-4.6,1.5-4.6,4.1v26.3h-29.7v-26.3
	c0-2.6-1.7-4.1-4.5-4.1h-4c-2.7,0-4.4,1.5-4.4,4.1v64c0,2.6,1.6,4.1,4.4,4.1h4c2.8,0,4.5-1.5,4.5-4.1v-26.2h29.7v26.2
	c0,2.6,1.7,4.1,4.6,4.1H435.9 M609.2,331.7c0.9,0,2-0.1,3.2-0.4c1.2-0.3,2.4-0.6,3.6-1.1c1.2-0.5,2.3-1.1,3.3-1.7
	c1.2-0.8,1.9-1.9,2.2-3.1l0-0.2v-61.5c0-2.6-1.7-4.1-4.6-4.1H613c-2.9,0-4.6,1.5-4.6,4.1v53.2l-22.2-52.3c-0.4-0.9-1.1-1.7-2.1-2.4
	c-0.8-0.6-1.8-1.1-2.9-1.5c-1.1-0.4-2.2-0.7-3.3-0.9c-1.1-0.2-2-0.3-2.8-0.3c-0.8,0-1.8,0.2-3.1,0.5c-1.1,0.3-2.3,0.7-3.4,1.3
	c-1.1,0.5-2.1,1.1-3,1.8c-1.1,0.8-1.8,1.7-2.1,2.7l-0.1,0.2v61.7c0,2.6,1.7,4.1,4.5,4.1h3.9c2.8,0,4.5-1.5,4.5-4.1v-53.4l22.4,52.5
	c0.8,1.6,2.4,2.8,4.7,3.8C605.5,331.2,607.4,331.7,609.2,331.7 M539.7,326.1c-4.6-10.3-9.1-20.7-13.5-30.8c-4.2-9.9-8.6-20-13.1-30
	c-1.1-2.3-3.6-4-3.6-4l-1.2-0.6c-3.3-1.5-6.5-1.5-9.5-0.2l0,0l-1.5,0.8c0,0-1.9,1.3-3.1,3.2L442.8,380c-0.4,1.2-0.2,2.3,0.6,3.3
	c0.8,1.1,2.2,1.6,3.9,1.6h4.3c1.9,0,3.3-0.8,4.2-2.2l47.7-108c3.3,7.7,6.5,15.2,9.7,22.4c3.3,7.6,6.8,15.4,10.3,23.2h-32.3
	c-4.3,0-4.6,3-4.6,4v3.2c0,2.6,1.7,4.1,4.6,4.1h44.2c1.7,0,3-0.5,3.9-1.6C540.1,329,540.2,327.6,539.7,326.1"/>
<g>
	<defs>
		<path id="SVGID_1_" d="M160.1,274.8c3.3,7.7,6.5,15.2,9.7,22.4c3.3,7.6,6.8,15.4,10.3,23.2h-32.3c-4.3,0-4.6,3-4.6,4v3.2
			c0,2.6,1.7,4.1,4.6,4.1H192c1.7,0,3-0.5,3.9-1.6c0.9-1.1,1.1-2.5,0.5-4c-4.6-10.3-9.2-20.7-13.5-30.8c-4.2-9.9-8.6-20-13.1-30
			c-1.1-2.3-3.6-4-3.6-4l-0.1,0L160.1,274.8z"/>
	</defs>
	<clipPath id="SVGID_2_">
		<use xlink:href="#SVGID_1_"  style="overflow:visible;"/>
	</clipPath>
	
		<linearGradient id="SVGID_3_" gradientUnits="userSpaceOnUse" x1="47.4232" y1="749.7661" x2="52.4627" y2="749.7661" gradientTransform="matrix(0 18.2096 18.2096 0 -13482.9531 -604.5171)">
		<stop  offset="0" style="stop-color:#231815"/>
		<stop  offset="0.1055" style="stop-color:#3D3535"/>
		<stop  offset="0.2816" style="stop-color:#A19F9C"/>
		<stop  offset="1" style="stop-color:#B7B6B3"/>
	</linearGradient>
	<rect x="143.1" y="261.3" class="st1" width="53.8" height="70.4"/>
</g>
<g>
	<path class="st2" d="M167.4,262.2L167.4,262.2c-0.7-0.7-1.3-1-1.3-1l-1.1-0.6c-3.3-1.5-6.6-1.5-9.5-0.2l0,0l-1.5,0.8
		c0,0-1.9,1.3-3.1,3.2L99.5,380c-0.4,1.2-0.2,2.3,0.6,3.3c0.8,1.1,2.2,1.6,3.9,1.6h4.3c1.8,0,3.3-0.8,4.2-2.2l51.9-117.5
		c0,0,0-0.1,0.1-0.1c0.4-0.8,0.9-1.2,1.5-1.5c0,0,0.1,0,0.1,0c0.1,0,0.1-0.1,0.2-0.1c0.6-0.2,1.3-0.1,1.3-0.1c1,0.1,1.6,0.7,1.9,1
		C168.4,263,167.4,262.2,167.4,262.2"/>
	<path class="st2" d="M169.2,264.4c0.1,0.1,0.2,0.3,0.2,0.4C169.5,264.8,169.4,264.7,169.2,264.4"/>
</g>
</svg>
